<?xml version="1.0" standalone="no"?>
<!DOCTYPE svg PUBLIC "-//W3C//DTD SVG 20010904//EN"
 "http://www.w3.org/TR/2001/REC-SVG-20010904/DTD/svg10.dtd">
<svg version="1.0" xmlns="http://www.w3.org/2000/svg"
 width="260.000000pt" height="260.000000pt" viewBox="0 0 260.000000 260.000000"
 preserveAspectRatio="xMidYMid meet">
<metadata>
Created by potrace 1.11, written by Peter Selinger 2001-2013
</metadata>
<g transform="translate(0.000000,260.000000) scale(0.100000,-0.100000)"
fill="#000000" stroke="none">
<path d="M50 2020 l0 -420 298 0 c164 0 301 2 303 4 2 2 3 52 1 110 l-3 106
-185 0 -184 0 0 50 0 50 170 0 170 0 0 105 0 105 -170 0 -170 0 0 45 0 45 176
2 176 3 0 105 0 105 -291 3 -291 2 0 -420z"/>
<path d="M760 2020 l0 -420 115 0 115 0 0 149 0 148 99 7 c54 4 113 11 131 16
62 18 119 59 147 108 25 42 28 56 28 142 0 86 -3 100 -28 142 -58 99 -152 127
-424 128 l-183 0 0 -420z m394 219 c49 -23 53 -104 7 -128 -11 -6 -56 -11
-100 -11 l-81 0 0 75 0 75 75 0 c41 0 85 -5 99 -11z"/>
<path d="M40 1385 l0 -105 115 0 115 0 0 -310 0 -310 115 0 115 0 0 310 0 310
110 0 110 0 0 105 0 105 -340 0 -340 0 0 -105z"/>
<path d="M791 1443 c18 -27 79 -115 136 -196 57 -81 103 -151 103 -155 0 -4
-63 -101 -140 -217 l-140 -210 132 -3 c72 -1 136 2 141 7 5 5 44 68 86 140
l78 132 84 -140 84 -141 143 0 c112 0 142 3 136 13 -4 6 -70 103 -146 214 -76
111 -138 205 -138 208 0 3 59 91 130 196 72 104 130 192 130 194 0 3 -62 5
-137 5 l-138 0 -47 -83 c-26 -45 -58 -99 -71 -120 l-23 -38 -74 120 -73 121
-144 0 -144 0 32 -47z"/>
<path d="M50 325 l0 -185 1070 0 1070 0 0 185 0 185 -1070 0 -1070 0 0 -185z
m259 52 c15 -19 3 -28 -20 -14 -26 16 -53 -2 -57 -38 -4 -35 13 -47 56 -40 38
7 44 -11 7 -25 -69 -26 -127 58 -75 110 23 23 72 26 89 7z m81 -52 c0 -51 -3
-65 -15 -65 -12 0 -15 14 -15 65 0 51 3 65 15 65 12 0 15 -14 15 -65z m140 55
c0 -5 -9 -10 -20 -10 -18 0 -20 -7 -20 -55 0 -37 -4 -55 -12 -55 -9 0 -13 17
-13 52 0 47 -2 53 -23 56 -12 2 -20 8 -17 13 8 12 105 12 105 -1z m70 -15 c7
-14 16 -25 20 -25 4 0 13 11 20 25 7 14 20 25 27 25 10 0 7 -12 -12 -43 -14
-24 -25 -53 -25 -65 0 -12 -4 -22 -10 -22 -5 0 -10 10 -10 23 0 12 -11 39 -25
59 -29 42 -30 48 -12 48 8 0 20 -11 27 -25z m300 5 c62 -62 -35 -154 -100 -95
-43 39 -11 115 50 115 17 0 39 -9 50 -20z m150 11 c0 -6 -14 -11 -32 -13 -46
-4 -49 -28 -4 -28 25 0 36 -4 36 -15 0 -10 -11 -15 -35 -15 -31 0 -35 -3 -35
-25 0 -14 -4 -25 -10 -25 -6 0 -10 28 -10 65 l0 65 45 0 c25 0 45 -4 45 -9z
m200 0 c0 -6 -14 -11 -32 -13 -46 -4 -49 -28 -4 -28 25 0 36 -4 36 -15 0 -11
-11 -15 -36 -15 -45 0 -42 -24 4 -28 49 -5 38 -22 -13 -22 l-45 0 0 65 0 65
45 0 c25 0 45 -4 45 -9z m70 -46 c0 -54 0 -55 30 -55 17 0 30 -4 30 -10 0 -5
-20 -10 -45 -10 l-45 0 0 65 c0 51 3 65 15 65 12 0 15 -13 15 -55z m260 41 c6
-8 10 -25 8 -38 -2 -18 -11 -24 -38 -28 -27 -4 -36 -10 -38 -27 -2 -13 -9 -23
-15 -23 -8 0 -11 20 -9 65 l4 65 38 0 c20 0 43 -6 50 -14z m132 -51 c24 -61
24 -65 7 -65 -11 0 -19 5 -19 10 0 14 -53 13 -67 -1 -27 -27 -29 0 -6 59 33
83 51 82 85 -3z m146 46 c3 -10 -3 -12 -26 -6 -45 9 -48 -11 -5 -32 21 -10 39
-26 41 -35 5 -25 -42 -52 -73 -41 -35 11 -27 29 13 25 42 -5 41 14 -2 32 -42
17 -50 30 -36 56 9 17 19 20 47 18 20 -2 38 -9 41 -17z m162 -1 c42 -42 11
-113 -50 -113 -61 0 -92 71 -50 113 11 11 33 20 50 20 17 0 39 -9 50 -20z"/>
<path d="M821 356 c-7 -8 -11 -27 -9 -43 6 -50 78 -40 78 11 0 41 -45 62 -69
32z"/>
<path d="M1510 351 c0 -16 6 -21 26 -21 33 0 30 33 -4 38 -17 3 -22 -2 -22
-17z"/>
<path d="M1656 338 c-9 -35 -8 -38 15 -38 16 0 19 4 14 23 -11 35 -22 41 -29
15z"/>
<path d="M1941 356 c-7 -8 -11 -27 -9 -43 6 -50 78 -40 78 11 0 41 -45 62 -69
32z"/>
</g>
</svg>
