<?xml version="1.0" encoding="utf-8"?>
<!-- Generator: Adobe Illustrator 26.0.3, SVG Export Plug-In . SVG Version: 6.00 Build 0)  -->
<svg version="1.1" id="Layer_1" xmlns="http://www.w3.org/2000/svg" xmlns:xlink="http://www.w3.org/1999/xlink" x="0px" y="0px"
	 viewBox="0 0 502.8 458.1" style="enable-background:new 0 0 502.8 458.1;" xml:space="preserve">
<style type="text/css">
	.st0{fill:#F1AA2B;}
	.st1{fill:#FFFFFF;}
	.st2{fill:#1D2755;}
</style>
<polygon class="st0" points="502.8,144.8 367.1,144.8 325,9.3 283.2,144.8 230.2,144.8 230.2,168.7 283.2,168.7 300.5,168.7 
	305.9,152.2 325.1,93 344.4,152.2 349.7,168.7 367.1,168.7 429.4,168.7 379,205.3 365,215.5 370.3,232 389.6,291.2 339.2,254.6 
	325.1,244.4 311.6,264.1 431,350.8 393,224.6 "/>
<polygon class="st1" points="143,191 25.3,191 19.8,191 19.8,196.5 19.8,225.5 19.8,231 25.3,231 62.3,231 62.3,345.4 62.3,350.8 
	67.8,350.8 100.6,350.8 106.1,350.8 106.1,345.4 106.1,231 143,231 148.5,231 148.5,225.5 148.5,196.5 148.5,191 "/>
<polygon class="st1" points="320.7,342.3 269,266.9 315,199.6 320.8,191 310.5,191 270.7,191 267.6,191 266,193.7 240.1,237.9 
	213.2,193.6 211.6,191 208.5,191 167.3,191 156.8,191 162.8,199.6 209.8,267.6 159.8,342.3 154,350.8 164.3,350.8 203.2,350.8 
	206.4,350.8 207.9,348.1 238.6,296.1 270.2,348.2 271.8,350.8 274.9,350.8 316.1,350.8 326.5,350.8 "/>
<polygon class="st1" points="130.9,128 64.2,128 64.2,108.7 123.3,108.7 128.8,108.7 128.8,103.2 128.8,72.9 128.8,67.4 123.3,67.4 
	64.2,67.4 64.2,50.7 127.1,50.7 132.6,50.7 132.6,45.2 132.6,14.9 132.6,9.4 127.1,9.4 25.9,9.4 20.4,9.4 20.4,14.9 20.4,163.8 
	20.4,169.2 25.9,169.2 130.9,169.2 136.3,169.2 136.3,163.8 136.3,133.5 136.3,128 "/>
<path class="st1" d="M260.7,19.7c-10.3-6.9-24.4-10.3-42.9-10.3H157v159.8h43.8v-58h18.5c18.5,0,32.4-3.5,42.5-10.7
	c12-8.6,18.1-22.2,18.1-40.4C279.8,41.8,273.4,28.2,260.7,19.7 M225.5,74.1h-26.4V45.4h26.4c8.7,0,15.2,5.2,15.2,14.5
	C240.7,68.9,234.3,74.1,225.5,74.1"/>
<g id="Layer_2">
	<rect x="20.5" y="378.9" class="st1" width="410.5" height="71"/>
</g>
<g>
	<path class="st2" d="M48.9,415c0-8.2,6.2-13.8,14.2-13.8c5.8,0,9.2,3.2,11.1,6.5l-4.9,2.4c-1.1-2.2-3.5-3.9-6.2-3.9
		c-4.9,0-8.4,3.7-8.4,8.8s3.5,8.8,8.4,8.8c2.7,0,5.1-1.7,6.2-3.9l4.9,2.4c-1.9,3.3-5.3,6.6-11.1,6.6C55.1,428.8,48.9,423.2,48.9,415
		z"/>
	<path class="st2" d="M80.3,428.3v-26.7h5.7v26.7H80.3z"/>
	<path class="st2" d="M100,428.3v-21.7h-7.8v-5h21.3v5h-7.8v21.7H100z"/>
	<path class="st2" d="M127.2,428.3v-10.9L117,401.6h6.5l6.6,10.7l6.6-10.7h6.4l-10.2,15.8v10.9H127.2z"/>
	<path class="st2" d="M159.9,415c0-8,5.9-13.8,14-13.8c8,0,13.9,5.8,13.9,13.8c0,8-5.9,13.8-13.9,13.8
		C165.7,428.8,159.9,423,159.9,415z M181.9,415c0-5-3.2-8.8-8.1-8.8c-5,0-8.1,3.8-8.1,8.8c0,5,3.2,8.8,8.1,8.8
		C178.7,423.7,181.9,419.9,181.9,415z"/>
	<path class="st2" d="M194.4,428.3v-26.7h18.9v5h-13.2v5.6H213v5h-12.9v11.1H194.4z"/>
	<path class="st2" d="M232.8,428.3v-26.7h18.9v5h-13.2v5.6h12.9v5h-12.9v6.1h13.2v5H232.8z"/>
	<path class="st2" d="M258.5,428.3v-26.7h5.7v21.7h11.3v5H258.5z"/>
	<path class="st2" d="M294.9,428.3v-26.7h12.5c5.8,0,9,3.9,9,8.6c0,4.6-3.2,8.6-9,8.6h-6.8v9.5H294.9z M310.5,410.2
		c0-2.2-1.7-3.6-4-3.6h-6v7.2h6C308.8,413.8,310.5,412.4,310.5,410.2z"/>
	<path class="st2" d="M338,428.3l-1.7-4.5h-11.4l-1.7,4.5h-6.4l10.3-26.7h7.1l10.3,26.7H338z M330.6,407.3l-4.2,11.5h8.3
		L330.6,407.3z"/>
	<path class="st2" d="M347.5,424.5l3.1-4.4c1.9,2,4.8,3.6,8.5,3.6c3.2,0,4.6-1.4,4.6-3c0-4.6-15.4-1.4-15.4-11.4
		c0-4.4,3.8-8.1,10.1-8.1c4.2,0,7.8,1.3,10.4,3.7l-3.2,4.2c-2.2-2-5-2.9-7.8-2.9c-2.4,0-3.8,1-3.8,2.6c0,4.2,15.3,1.4,15.3,11.3
		c0,4.9-3.5,8.6-10.7,8.6C353.7,428.8,350,427.1,347.5,424.5z"/>
	<path class="st2" d="M374.7,415c0-8,5.9-13.8,14-13.8c8,0,13.9,5.8,13.9,13.8c0,8-5.9,13.8-13.9,13.8
		C380.5,428.8,374.7,423,374.7,415z M396.7,415c0-5-3.2-8.8-8.1-8.8c-5,0-8.1,3.8-8.1,8.8c0,5,3.2,8.8,8.1,8.8
		C393.5,423.7,396.7,419.9,396.7,415z"/>
</g>
</svg>
